<?xml version="1.0" encoding="UTF-8"?>
<svg version="1.1" xmlns="http://www.w3.org/2000/svg" viewBox="0 0 1408 768" width="100%" height="100%">
<path d="M0 0 C1.67633077 1.50361791 3.34357256 3.01745251 5 4.54296875 C7.07454536 6.4494044 9.18828431 8.2926561 11.328125 10.125 C19.50034849 17.27979807 26.54403167 25.10643248 33.265625 33.625 C34.05839844 34.60082031 34.85117187 35.57664062 35.66796875 36.58203125 C58.29358878 64.99809432 73.25119729 99.33095951 80.515625 134.8125 C80.66676758 135.54670166 80.81791016 136.28090332 80.97363281 137.03735352 C83.65102113 150.99694194 84.71066509 164.99572741 84.703125 179.1875 C84.70352783 179.97881317 84.70393066 180.77012634 84.7043457 181.5854187 C84.60850299 214.717666 77.45024863 247.6206779 63.265625 277.625 C62.94625977 278.30916992 62.62689453 278.99333984 62.29785156 279.69824219 C54.36792807 296.54832327 44.85987474 312.05358603 33.265625 326.625 C32.8320166 327.17575195 32.3984082 327.72650391 31.95166016 328.29394531 C19.10260554 344.49341208 4.16600719 358.73668084 -12.734375 370.625 C-13.3747168 371.07810547 -14.01505859 371.53121094 -14.67480469 371.99804688 C-53.34659467 399.13404788 -98.27751908 413.08465404 -145.421875 413.0625 C-146.75474045 413.06310425 -146.75474045 413.06310425 -148.11453247 413.0637207 C-209.86244103 412.90377882 -264.71345595 385.92416831 -308.296875 343.25 C-313.49673576 337.98450285 -318.21658589 332.4828113 -322.734375 326.625 C-323.15686523 326.0789209 -323.57935547 325.5328418 -324.01464844 324.97021484 C-361.7705642 275.8378818 -380.52479624 212.91968947 -372.58694458 151.10101318 C-370.41593066 135.199463 -366.91546615 119.83237942 -361.734375 104.625 C-361.48574707 103.88056641 -361.23711914 103.13613281 -360.98095703 102.36914062 C-350.45416204 71.24392936 -332.38387997 43.13590864 -310.046875 19.1875 C-309.44149902 18.53740967 -308.83612305 17.88731934 -308.21240234 17.2175293 C-304.51505675 13.31733556 -300.65775923 9.70259167 -296.57519531 6.20776367 C-294.74095998 4.63066186 -292.95488098 3.00957405 -291.171875 1.375 C-279.6869001 -8.61581312 -266.86971164 -16.75304022 -253.734375 -24.375 C-253.09532227 -24.74753906 -252.45626953 -25.12007812 -251.79785156 -25.50390625 C-173.7569354 -70.47804401 -67.6387304 -58.74906869 0 0 Z " fill="#0A3D62" transform="translate(848.734375,204.375)"/>
<path d="M0 0 C0.55671387 0.4552002 1.11342773 0.91040039 1.68701172 1.37939453 C15.40962681 12.62545455 28.09173293 24.98885131 39 39 C39.98429143 40.20922401 40.97146985 41.4161016 41.9609375 42.62109375 C47.8418177 49.8096468 53.18605516 57.04078446 58 65 C59.12287446 66.73054769 60.24793619 68.45967781 61.375 70.1875 C85.21031011 107.82499414 99.24792605 149.73159735 104 194 C104.14139404 195.19810303 104.14139404 195.19810303 104.28564453 196.42041016 C112.55347558 273.72980707 86.856111 350.93529425 38.5 411.01171875 C36.00149145 413.99821726 33.42464365 416.7615937 30.6015625 419.4375 C28.82920203 421.16663216 27.23445081 422.99363284 25.625 424.875 C19.31512327 432.17300061 12.37960882 438.79626292 5 445 C3.82050781 445.99580078 3.82050781 445.99580078 2.6171875 447.01171875 C-0.22757882 449.37669612 -3.10157101 451.70139695 -6 454 C-6.85029785 454.67506592 -6.85029785 454.67506592 -7.71777344 455.36376953 C-23.54664733 467.82397827 -40.63270858 478.68461234 -59 487 C-60.37720215 487.62986816 -60.37720215 487.62986816 -61.78222656 488.27246094 C-98.28335092 504.80414985 -136.28796581 513.4527431 -176.3125 513.375 C-177.3210202 513.37478851 -178.32954041 513.37457703 -179.36862183 513.37435913 C-195.89595512 513.33987577 -211.7650006 512.31219402 -228 509 C-229.33732178 508.74307373 -229.33732178 508.74307373 -230.70166016 508.48095703 C-275.08285019 499.80148703 -317.85416242 479.26706067 -352.41796875 450.171875 C-356.20776348 446.98409002 -360.1003768 443.9245963 -363.98046875 440.84765625 C-364.64691406 440.23792969 -365.31335938 439.62820313 -366 439 C-366 438.34 -366 437.68 -366 437 C-366.82757812 436.6596875 -366.82757812 436.6596875 -367.671875 436.3125 C-370.68692417 434.61274074 -372.81230369 432.45195184 -375.25 430 C-376.14203125 429.113125 -377.0340625 428.22625 -377.953125 427.3125 C-380 425 -380 425 -380 423 C-380.66 423 -381.32 423 -382 423 C-383.39599396 421.47162731 -384.71587649 419.87349901 -386 418.25 C-386.80179687 417.24582031 -387.60359375 416.24164062 -388.4296875 415.20703125 C-389.06148926 414.41353271 -389.06148926 414.41353271 -389.70605469 413.60400391 C-391.79913499 411.00937417 -393.9686623 408.47960454 -396.125 405.9375 C-403.19771704 397.45461217 -409.18139021 388.37307435 -415 379 C-416.01707031 377.38738281 -416.01707031 377.38738281 -417.0546875 375.7421875 C-438.60287188 341.12315543 -450.83864354 303.12519743 -457 263 C-457.13277344 262.1853125 -457.26554687 261.370625 -457.40234375 260.53125 C-461.55192611 234.42151831 -460.11886356 205.97037984 -456 180 C-455.85546387 179.05318359 -455.71092773 178.10636719 -455.56201172 177.13085938 C-451.53338691 151.23701838 -444.15294828 125.73195281 -433 102 C-432.55599854 101.04625488 -432.55599854 101.04625488 -432.10302734 100.07324219 C-415.43362794 64.573095 -390.78897434 31.55911998 -361 6 C-359.90702081 5.01244195 -358.8160221 4.02268945 -357.7265625 3.03125 C-348.11548526 -5.6312796 -337.87882862 -13.01061614 -327 -20 C-326.19933105 -20.51449707 -325.39866211 -21.02899414 -324.57373047 -21.55908203 C-246.94599247 -70.88455137 -149.18282577 -77.47301795 0 0 Z M-331.33984375 56.33984375 C-333.06678875 58.06678875 -334.87882391 59.61873621 -336.75 61.1875 C-352.81296075 75.19268184 -365.73128971 93.43378337 -376 112 C-376.55179932 112.97453125 -376.55179932 112.97453125 -377.11474609 113.96875 C-389.80471152 136.442252 -398.91070244 161.48689827 -403 187 C-403.13390137 187.75410156 -403.26780273 188.50820313 -403.40576172 189.28515625 C-413.72782609 247.89683334 -399.16212822 310.82553474 -365.48144531 359.67431641 C-357.15767844 371.5387115 -347.93953245 382.46579466 -338 393 C-337.19820312 393.8559375 -336.39640625 394.711875 -335.5703125 395.59375 C-328.92753667 402.47610135 -321.63910923 408.28257506 -314 414 C-313.43265137 414.42812988 -312.86530273 414.85625977 -312.28076172 415.29736328 C-292.03388936 430.49274915 -269.82697215 441.61921958 -246 450 C-245.30390625 450.24878906 -244.6078125 450.49757813 -243.890625 450.75390625 C-210.14827832 462.56372759 -169.93377654 463.94250637 -135 457 C-134.32533691 456.87141602 -133.65067383 456.74283203 -132.95556641 456.61035156 C-98.34844191 449.75002373 -65.18287717 434.2371645 -37.65332031 412.31103516 C-36.19979696 411.15843321 -34.72269938 410.03569231 -33.2421875 408.91796875 C-18.74223111 397.67717687 -5.67461789 383.90164904 5 369 C5.43683105 368.40219727 5.87366211 367.80439453 6.32373047 367.18847656 C43.57280885 316.01613406 59.27201909 252.38922052 49.76660156 189.77929688 C48.13420439 179.98491384 46.00200954 170.46310878 43 161 C42.72704102 160.1224707 42.45408203 159.24494141 42.17285156 158.34082031 C23.54397872 99.28420573 -17.22921287 49.83985787 -71.80664062 20.49072266 C-153.88676369 -22.11910002 -265.35382593 -12.1420991 -331.33984375 56.33984375 Z " fill="#0A3D62" transform="translate(881,157)"/>
<path d="M0 0 C1.67633077 1.50361791 3.34357256 3.01745251 5 4.54296875 C7.07454536 6.4494044 9.18828431 8.2926561 11.328125 10.125 C19.50034849 17.27979807 26.54403167 25.10643248 33.265625 33.625 C34.05839844 34.60082031 34.85117187 35.57664062 35.66796875 36.58203125 C58.29358878 64.99809432 73.25119729 99.33095951 80.515625 134.8125 C80.66676758 135.54670166 80.81791016 136.28090332 80.97363281 137.03735352 C83.65102113 150.99694194 84.71066509 164.99572741 84.703125 179.1875 C84.70352783 179.97881317 84.70393066 180.77012634 84.7043457 181.5854187 C84.60850299 214.717666 77.45024863 247.6206779 63.265625 277.625 C62.94625977 278.30916992 62.62689453 278.99333984 62.29785156 279.69824219 C54.36792807 296.54832327 44.85987474 312.05358603 33.265625 326.625 C32.8320166 327.17575195 32.3984082 327.72650391 31.95166016 328.29394531 C19.10260554 344.49341208 4.16600719 358.73668084 -12.734375 370.625 C-13.3747168 371.07810547 -14.01505859 371.53121094 -14.67480469 371.99804688 C-53.34659467 399.13404788 -98.27751908 413.08465404 -145.421875 413.0625 C-146.75474045 413.06310425 -146.75474045 413.06310425 -148.11453247 413.0637207 C-209.86244103 412.90377882 -264.71345595 385.92416831 -308.296875 343.25 C-313.49673576 337.98450285 -318.21658589 332.4828113 -322.734375 326.625 C-323.15686523 326.0789209 -323.57935547 325.5328418 -324.01464844 324.97021484 C-361.7705642 275.8378818 -380.52479624 212.91968947 -372.58694458 151.10101318 C-370.41593066 135.199463 -366.91546615 119.83237942 -361.734375 104.625 C-361.48574707 103.88056641 -361.23711914 103.13613281 -360.98095703 102.36914062 C-350.45416204 71.24392936 -332.38387997 43.13590864 -310.046875 19.1875 C-309.44149902 18.53740967 -308.83612305 17.88731934 -308.21240234 17.2175293 C-304.51505675 13.31733556 -300.65775923 9.70259167 -296.57519531 6.20776367 C-294.74095998 4.63066186 -292.95488098 3.00957405 -291.171875 1.375 C-279.6869001 -8.61581312 -266.86971164 -16.75304022 -253.734375 -24.375 C-253.09532227 -24.74753906 -252.45626953 -25.12007812 -251.79785156 -25.50390625 C-173.7569354 -70.47804401 -67.6387304 -58.74906869 0 0 Z M-189.734375 -21.375 C-190.76256348 -21.15384521 -190.76256348 -21.15384521 -191.81152344 -20.92822266 C-213.08586648 -16.29815025 -233.59011673 -7.38342627 -251.734375 4.625 C-252.3413623 5.02541504 -252.94834961 5.42583008 -253.57373047 5.83837891 C-279.80999052 23.38339203 -301.90194481 46.33658373 -317.734375 73.625 C-318.45812272 74.8334595 -319.18208913 76.04178804 -319.90625 77.25 C-344.46729748 118.85905357 -354.15643017 172.10305034 -343.734375 219.625 C-343.53569824 220.53427246 -343.33702148 221.44354492 -343.13232422 222.38037109 C-338.75690298 241.72071621 -332.12914875 260.23416902 -322.75537109 277.71875 C-322.07289222 278.99297168 -321.39875463 280.27169512 -320.73291016 281.5546875 C-300.41349267 320.6811057 -265.84129864 351.67803325 -225.734375 369.625 C-224.61240723 370.12725098 -224.61240723 370.12725098 -223.46777344 370.63964844 C-187.34680605 386.51617764 -147.50113578 391.07359612 -108.734375 383.625 C-107.54199219 383.42003906 -106.34960938 383.21507812 -105.12109375 383.00390625 C-76.25804979 377.54333037 -47.79025128 364.84397916 -24.734375 346.625 C-23.84419678 345.93349854 -23.84419678 345.93349854 -22.93603516 345.22802734 C-9.37036001 334.66495127 2.77673663 323.29899583 13.265625 309.625 C13.69053223 309.08182129 14.11543945 308.53864258 14.55322266 307.97900391 C22.24972322 298.10565936 28.54616183 287.75253064 34.265625 276.625 C34.62253418 275.93180664 34.97944336 275.23861328 35.34716797 274.52441406 C44.20559001 257.07386355 50.64270544 238.85139322 54.265625 219.625 C54.58466797 218.07232422 54.58466797 218.07232422 54.91015625 216.48828125 C57.28285013 204.52239343 57.50565884 192.40855059 57.515625 180.25 C57.51629974 179.50344147 57.51697449 178.75688293 57.51766968 177.98770142 C57.49959986 165.33055737 56.73460783 153.06867345 54.265625 140.625 C54.09401855 139.75133789 53.92241211 138.87767578 53.74560547 137.97753906 C47.11708842 105.36215493 32.53200078 72.59399748 10.265625 47.625 C9.4921875 46.75488281 8.71875 45.88476562 7.921875 44.98828125 C6.39542974 43.28629478 4.86190255 41.59062489 3.3203125 39.90234375 C1.55996702 37.9512384 -0.12621823 35.96486456 -1.796875 33.9375 C-5.09362748 30.07481998 -8.85372635 26.88527285 -12.734375 23.625 C-13.57484375 22.88507813 -14.4153125 22.14515625 -15.28125 21.3828125 C-63.09901979 -19.96238624 -128.36968626 -35.44548924 -189.734375 -21.375 Z " fill="#0A3D62" transform="translate(848.734375,204.375)"/>
<path d="M0 0 C11.86950268 0 20.33043715 3.27181997 28.84375 11.60546875 C32.05355145 15.16997652 34.69263132 18.79647686 37 23 C37.33902344 23.5878125 37.67804688 24.175625 38.02734375 24.78125 C41.80229698 32.71387061 41.05553542 44.21999497 38.8125 52.5 C37.17719747 57.08964625 34.82395338 61.04824134 32 65 C31.401875 65.86625 30.80375 66.7325 30.1875 67.625 C28 70 28 70 26.0078125 71.00390625 C23.29271092 72.46774216 21.82912822 73.47605419 20 76 C18.67070346 81.86952937 18.89965184 88.01674097 19 94 C23.55438974 94.03026554 28.10553314 94.01430991 32.65966797 93.95727539 C34.20551136 93.94421329 35.75151122 93.94333 37.29736328 93.95532227 C47.86368101 94.26948849 47.86368101 94.26948849 56.9375 89.50390625 C57.97442955 88.35020403 58.99920333 87.18518257 60 86 C65.17968645 83.41015677 73.07555127 84.40517039 78.4375 86.0625 C83.87970498 90.17733791 88.29502381 95.07482391 89.28515625 101.9921875 C89.71716536 108.39478405 87.75594922 112.87544463 84 118 C79.48467868 122.40243829 74.91475136 124.28488895 68.625 124.375 C62.30694201 124.26430626 58.89314911 122.42651216 54.0625 118.375 C53 117 53 117 53 115 C41.78 115 30.56 115 19 115 C19.06291459 132.72453592 19.13812648 150.44887536 19.23571491 168.17324829 C19.28063623 176.40340899 19.3200593 184.63352678 19.34643555 192.86376953 C19.36944535 200.03918686 19.40287659 207.21446796 19.44870156 214.38977718 C19.4725937 218.18731123 19.49134867 221.98471068 19.49761391 225.78231812 C19.50368302 229.36108296 19.52374811 232.93950362 19.55427551 236.51814079 C19.56718073 238.44886642 19.56549081 240.37967258 19.5632782 242.31044006 C19.67017811 252.23242638 21.40808773 260.16558133 28.53125 267.59765625 C33.52889183 272.22047494 38.48506773 274.59443089 45.25 275.375 C65.42991109 273.35700889 81.93706303 262.48568981 95.05078125 247.44140625 C97.7061131 244.1155898 99.88221249 240.68904921 102 237 C101.21496094 236.87882813 100.42992187 236.75765625 99.62109375 236.6328125 C93.94948787 235.72813917 88.47507746 234.7420701 83 233 C85.17180609 229.28983126 87.32334857 226.58045325 90.625 223.81640625 C95.14949012 219.92939254 99.32246408 215.75362947 103.5 211.5 C108.19234107 206.72218823 112.93690686 202.12704586 118.01367188 197.75927734 C121.49191009 194.67862535 124.73690356 191.36776369 128 188.0625 C129.01900391 187.03672852 129.01900391 187.03672852 130.05859375 185.99023438 C131.70808359 184.32912841 133.3551668 182.66571487 135 181 C135.99 181.33 136.98 181.66 138 182 C139.01725581 184.62313145 139.82913949 187.1091149 140.5625 189.8125 C140.77865967 190.59149658 140.99481934 191.37049316 141.2175293 192.1730957 C141.83350625 194.44370531 142.42323302 196.71914876 143 199 C143.25265625 199.99773437 143.5053125 200.99546875 143.765625 202.0234375 C147.20008953 218.75418616 145.10268937 236.40041724 142 253 C141.78730469 254.1446875 141.57460938 255.289375 141.35546875 256.46875 C140.92943444 258.65102646 140.47082802 260.82694759 140 263 C136.32206751 261.43474036 133.78787492 259.14603892 130.875 256.4375 C127.68492491 253.36280814 127.68492491 253.36280814 124 251 C123.73445313 251.88171875 123.46890625 252.7634375 123.1953125 253.671875 C116.88622831 271.23834471 98.95952001 289.60538893 83 299 C81.87464844 299.66902344 80.74929688 300.33804687 79.58984375 301.02734375 C70.70679092 306.0886968 61.4807116 309.85931031 51.9375 313.5 C33.31084913 320.63791414 14.35697043 329.6451862 2 346 C-1.60650749 345.43055145 -3.07843192 344.17646999 -5.5 341.5 C-19.85412861 326.66916601 -37.62283239 319.17638985 -56.3984375 311.6640625 C-69.45734332 306.42486076 -81.14773698 301.15855723 -92 292 C-93.30710937 290.90171875 -93.30710937 290.90171875 -94.640625 289.78125 C-106.53230058 279.42163078 -116.79497968 267.0967789 -124 253 C-124 252.34 -124 251.68 -124 251 C-124.50789062 251.44730469 -125.01578125 251.89460937 -125.5390625 252.35546875 C-129.64642275 255.96286942 -133.78321121 259.52114925 -138 263 C-145.57312405 255.42687595 -145.51299303 233.06981582 -145.5625 222.5625 C-145.3579712 208.96413689 -143.00091345 195.24296791 -137 183 C-136.34 183 -135.68 183 -135 183 C-134.731875 184.18851563 -134.46375 185.37703125 -134.1875 186.6015625 C-129.90232313 204.9725002 -123.96175381 222.66786582 -114.93505859 239.27734375 C-114.05803885 240.89307517 -113.20959193 242.52422368 -112.36328125 244.15625 C-97.46137985 271.57863514 -71.60138259 287.08723909 -42.71142578 296.44555664 C-26.22480293 301.81025138 -13.69014739 309.04788209 0 320 C0 234.2 0 148.4 0 60 C3.96 58.35 7.92 56.7 12 55 C16.9921095 49.32269901 18.36696565 44.92042979 18.28125 37.5703125 C17.72885849 32.5220679 15.33415408 29.37227277 11.8125 25.75 C8.18127587 23.33926545 8.18127587 23.33926545 0 21 C0 14.07 0 7.14 0 0 Z " fill="#0A3D62" transform="translate(704,216)"/>
<path d="M0 0 C0 6.93 0 13.86 0 21 C2.31 21.33 4.62 21.66 7 22 C12.4933564 24.96641245 16.98925337 28.96776012 19 35 C19.74368459 41.86384301 19.04379592 47.30432666 15 53 C11.44519386 56.55480614 7.65197155 58.27704757 3 60 C2.01 60 1.02 60 0 60 C0 145.8 0 231.6 0 320 C-3.62585868 318.18707066 -6.22634995 316.31848038 -9.375 313.8125 C-20.23399836 305.50797081 -32.28205886 301.03344528 -45.09375 296.68359375 C-79.61873205 284.93625417 -103.84586363 264.79114095 -120 232 C-122.28108597 227.10678062 -124.20220335 222.08810374 -126 217 C-126.25765137 216.27780273 -126.51530273 215.55560547 -126.78076172 214.81152344 C-135 191.56749774 -135 191.56749774 -135 183 C-135.66 183 -136.32 183 -137 183 C-137 182.34 -137 181.68 -137 181 C-132.00907385 183.2181894 -128.42557311 186.42252973 -124.9375 190.5625 C-121.65950068 194.39148218 -118.08233647 197.71925098 -114.32910156 201.07714844 C-108.02341048 206.7833954 -102.08665586 212.86392184 -96.1184082 218.91894531 C-91.57320857 223.51020059 -86.97874806 227.88127859 -82 232 C-84.2233881 234.2233881 -84.92305521 234.3605016 -87.9140625 234.8515625 C-89.05488281 235.04492188 -89.05488281 235.04492188 -90.21875 235.2421875 C-91.0128125 235.36851562 -91.806875 235.49484375 -92.625 235.625 C-93.82769531 235.82609375 -93.82769531 235.82609375 -95.0546875 236.03125 C-97.03527484 236.36134789 -99.01749675 236.68161083 -101 237 C-95.77793774 251.94313201 -80.19829082 262.89399925 -66.55639648 269.53979492 C-57.24397551 273.89581401 -47.93661262 275.8304982 -37.6796875 273.46484375 C-35.67991196 272.69430665 -35.67991196 272.69430665 -33 271 C-31.989375 270.484375 -30.97875 269.96875 -29.9375 269.4375 C-24.95771696 265.30533961 -21.26264959 259.40170667 -20 253 C-19.90023042 251.09520458 -19.85391941 249.18733615 -19.84178162 247.27996826 C-19.8319928 246.11331635 -19.82220398 244.94666443 -19.81211853 243.74465942 C-19.80636307 242.46863861 -19.8006076 241.1926178 -19.79467773 239.87792969 C-19.78509531 238.51774806 -19.77508501 237.15756938 -19.76467896 235.7973938 C-19.73766332 232.10768462 -19.71663569 228.41796269 -19.69667697 224.7282095 C-19.67479679 220.87113057 -19.64741805 217.01409079 -19.62062073 213.15704346 C-19.57072131 205.85442564 -19.52577228 198.55178606 -19.48259836 191.24912572 C-19.43320247 182.93477598 -19.37829306 174.62046551 -19.32291877 166.30615377 C-19.20914096 149.20413743 -19.10302062 132.10208504 -19 115 C-30.22 115 -41.44 115 -53 115 C-53.99 116.98 -53.99 116.98 -55 119 C-61.31293127 123.70111903 -66.28320399 124.77970599 -74 124 C-80.17162054 122.39472787 -83.63354043 118.8059915 -86.87109375 113.43359375 C-89.24686663 108.31211796 -89.29190138 103.8811422 -88.4375 98.375 C-86.1777525 93.06950587 -83.01486293 89.52343295 -78.4375 86.0625 C-72.32090473 84.17191601 -65.49243456 83.60409583 -59.44921875 86.01953125 C-56.07427924 88.0617707 -54.21393339 89.67909991 -52 93 C-49.45420623 93.33802675 -47.13850914 93.4887947 -44.5859375 93.51171875 C-43.85629791 93.52966995 -43.12665833 93.54762115 -42.37490845 93.56611633 C-40.04166465 93.62035132 -37.70862686 93.65415562 -35.375 93.6875 C-33.79424208 93.72066162 -32.21351139 93.7551502 -30.6328125 93.79101562 C-26.75535674 93.87608467 -22.87796345 93.94283178 -19 94 C-19.03313799 91.26762206 -19.10041961 88.54325157 -19.1875 85.8125 C-19.19330078 85.04357422 -19.19910156 84.27464844 -19.20507812 83.48242188 C-19.36614891 79.31247831 -19.58418992 77.50970268 -22.30078125 74.1796875 C-23.19152344 73.46039063 -24.08226562 72.74109375 -25 72 C-33.4751811 64.24713547 -39.30728399 55.61099288 -40.25390625 43.84375 C-40.68747199 30.97663782 -36.95151547 20.57791576 -28.22265625 11.0625 C-20.23628836 3.48443313 -10.88943256 0 0 0 Z " fill="#0A3D62" transform="translate(704,216)"/>
<path d="M0 0 C4.66256988 2.62324025 7.9522378 5.96357701 9.58984375 11.11328125 C10.50359693 17.03692252 9.6408963 21.8969656 6.58984375 27.11328125 C4.44959125 29.40026501 2.25675561 31.45858367 -0.41015625 33.11328125 C-1.40015625 33.11328125 -2.39015625 33.11328125 -3.41015625 33.11328125 C-3.40571503 33.98580536 -3.4012738 34.85832947 -3.396698 35.7572937 C-3.3566725 43.9682673 -3.32619798 52.17920827 -3.30653191 60.39025688 C-3.29608161 64.61193875 -3.2818998 68.8335402 -3.25927734 73.05517578 C-3.23759322 77.12705402 -3.22559702 81.19885478 -3.22040176 85.27078629 C-3.21669801 86.82657212 -3.20946579 88.38235357 -3.19869614 89.93810654 C-3.18423987 92.11231499 -3.18217581 94.28620067 -3.18310547 96.46044922 C-3.17866425 97.69955048 -3.17422302 98.93865173 -3.16964722 100.21530151 C-3.41015625 103.11328125 -3.41015625 103.11328125 -5.41015625 105.11328125 C-7.77664185 105.35379028 -7.77664185 105.35379028 -10.77783203 105.34033203 C-12.4593486 105.34010544 -12.4593486 105.34010544 -14.17483521 105.33987427 C-15.38944427 105.3295517 -16.60405334 105.31922913 -17.85546875 105.30859375 C-19.09561737 105.30576385 -20.33576599 105.30293396 -21.61349487 105.30001831 C-24.91140258 105.29070299 -28.20911597 105.27273015 -31.50695801 105.25061035 C-34.87180195 105.23015599 -38.23667432 105.22101748 -41.6015625 105.2109375 C-48.20450348 105.18884644 -54.80731396 105.15534608 -61.41015625 105.11328125 C-61.68085937 106.0465625 -61.9515625 106.97984375 -62.23046875 107.94140625 C-63.94892923 112.56190263 -67.12770041 114.77480406 -71.30859375 117.2265625 C-75.89647066 119.16233956 -81.05780724 118.97634445 -85.69921875 117.2734375 C-90.8697151 114.397712 -93.7393582 110.78768971 -95.41015625 105.11328125 C-96.33321683 99.55369798 -95.17149008 94.99163769 -92.41015625 90.11328125 C-88.18734284 85.75533782 -84.8134683 83.93668139 -78.78515625 83.73828125 C-72.76003509 83.78891252 -68.85410673 85.01460011 -64.41015625 89.11328125 C-61.41015625 93.14453125 -61.41015625 93.14453125 -61.41015625 96.11328125 C-45.24015625 96.11328125 -29.07015625 96.11328125 -12.41015625 96.11328125 C-12.41015625 75.32328125 -12.41015625 54.53328125 -12.41015625 33.11328125 C-14.39015625 32.61828125 -14.39015625 32.61828125 -16.41015625 32.11328125 C-18.26171875 30.84375 -18.26171875 30.84375 -20.03515625 29.30078125 C-20.92074219 28.54861328 -20.92074219 28.54861328 -21.82421875 27.78125 C-25.82223089 23.57644413 -25.845159 19.45149095 -25.71875 13.8671875 C-25.10578108 8.39702183 -22.52660684 4.78899827 -18.41015625 1.17578125 C-12.94365988 -2.36274651 -5.98187364 -2.20078658 0 0 Z " fill="#0A3D62" transform="translate(830.41015625,266.88671875)"/>
<path d="M0 0 C4.30460395 2.74761954 7.21454037 5.14655086 9.44921875 9.8359375 C10.31831758 16.16672601 10.32612967 22.53749258 6.44921875 27.8359375 C3.70832062 30.57683563 1.17980646 32.59240826 -2.55078125 33.8359375 C-2.88078125 48.6859375 -3.21078125 63.5359375 -3.55078125 78.8359375 C24.49921875 78.8359375 52.54921875 78.8359375 81.44921875 78.8359375 C81.44921875 81.8059375 81.44921875 84.7759375 81.44921875 87.8359375 C69.48846639 87.88220389 57.52773519 87.91777764 45.5669117 87.93956184 C40.01348849 87.95001524 34.46012634 87.96420273 28.90673828 87.98681641 C23.55105867 88.00848942 18.19543793 88.0204944 12.83971786 88.02569199 C10.79270373 88.02939773 8.74569295 88.03663374 6.69870377 88.04739761 C3.83959142 88.06183892 0.98072476 88.06391854 -1.87841797 88.06298828 C-3.15803406 88.07377411 -3.15803406 88.07377411 -4.46350098 88.08477783 C-10.32267693 88.06404182 -10.32267693 88.06404182 -12.55078125 85.8359375 C-12.77542114 83.654953 -12.77542114 83.654953 -12.74267578 80.91479492 C-12.73672394 79.89000534 -12.73077209 78.86521576 -12.72463989 77.80937195 C-12.71109467 76.69794327 -12.69754944 75.58651459 -12.68359375 74.44140625 C-12.68440046 72.10091015 -12.68706276 69.76041409 -12.69140625 67.41992188 C-12.68944061 63.71935628 -12.6757432 60.02036702 -12.62988281 56.32006836 C-12.59086474 52.7553865 -12.60195537 49.19368789 -12.62109375 45.62890625 C-12.59540314 44.52355026 -12.56971252 43.41819427 -12.54324341 42.27934265 C-12.58109135 39.25922724 -12.68327666 36.73048288 -13.55078125 33.8359375 C-15.45635728 31.98134866 -17.1672712 30.9603897 -19.58932495 29.88130188 C-22.56872291 28.29342225 -23.64208254 26.04865003 -24.9296875 23.015625 C-26.36777618 17.96874776 -26.13855615 13.59926221 -24.48828125 8.6484375 C-18.79290843 0.38096083 -9.85479024 -4.49728559 0 0 Z " fill="#0A3D62" transform="translate(593.55078125,284.1640625)"/>
<path d="M0 0 C4.27070558 -0.08692074 8.54118458 -0.14036515 12.8125 -0.1875 C14.63491211 -0.22520508 14.63491211 -0.22520508 16.49414062 -0.26367188 C18.23920898 -0.27817383 18.23920898 -0.27817383 20.01953125 -0.29296875 C21.09307861 -0.3086792 22.16662598 -0.32438965 23.27270508 -0.34057617 C26 0 26 0 27.85498047 1.11230469 C29.55952523 3.92244117 29.33417481 6.2309203 29.30078125 9.49609375 C29.30916016 10.77677734 29.31753906 12.05746094 29.32617188 13.37695312 C29.32396092 15.40931389 29.31245637 17.44071903 29.28491211 19.47290039 C29.2641726 21.43886257 29.28200113 23.40511188 29.30078125 25.37109375 C29.29216064 26.54599365 29.28354004 27.72089355 29.2746582 28.93139648 C29.7261881 32.27388597 29.7261881 32.27388597 32.90307617 34.25805664 C33.92506104 34.83289795 34.9470459 35.40773926 36 36 C39.53837611 39.93152901 41.80227986 42.94371056 42.3125 48.25 C41.86679838 53.5984194 41.10326575 57.93692404 37.16015625 61.8046875 C31.59224099 66.13874444 27.15787725 67.71578772 20 67 C14.94051289 64.72086656 11.06900408 61.6648862 8 57 C6.22931829 51.68795486 5.66247376 45.75135432 8.1640625 40.60546875 C10.41711464 37.49163515 12.00183855 35.38311785 15.65625 33.98046875 C18.19157886 32.24733471 18.19157886 32.24733471 18.4934082 29.70361328 C18.71942487 26.73155869 18.7956185 23.79302329 18.8125 20.8125 C18.83763672 19.77673828 18.86277344 18.74097656 18.88867188 17.67382812 C18.94760121 15.11629507 18.976648 12.55810529 19 10 C12.73 10 6.46 10 0 10 C0 6.7 0 3.4 0 0 Z " fill="#0A3D62" transform="translate(732,399)"/>
<path d="M0 0 C5.65929325 2.28529519 9.49253948 6.1108126 13 11 C14.92570993 16.77712979 14.90187619 22.8099294 12.3125 28.375 C9.64593415 33.04855711 5.92882765 35.9288437 1 38 C-5.62835933 38.89956305 -11.79411951 38.8176027 -17.30859375 34.7421875 C-21.67709478 30.24253055 -24.21344091 24.63503039 -24.625 18.375 C-24.23921433 12.14731699 -20.88813913 7.74998261 -16.4375 3.625 C-10.93487585 -0.0434161 -6.59911858 -0.9625782 0 0 Z " fill="#0A3D62" transform="translate(709,237)"/>
<path d="M0 0 C3.05688354 1.63740583 4.38739738 3.12094143 6.0625 6.125 C7.11142824 8.02549645 7.11142824 8.02549645 8.8125 9.4375 C12.8201953 10.34331287 16.71336356 10.48326388 20.8125 10.4375 C20.8125 13.7375 20.8125 17.0375 20.8125 20.4375 C16.8525 20.4375 12.8925 20.4375 8.8125 20.4375 C8.60625 21.324375 8.4 22.21125 8.1875 23.125 C6.18063175 27.95972804 2.94839494 30.25713701 -1.5625 32.75 C-6.55726333 34.0581523 -10.59923093 34.02920808 -15.375 32.25 C-20.1031002 29.20300209 -23.82182033 26.02437139 -25.1875 20.4375 C-25.7293525 15.46912935 -25.79038802 11.66646404 -23.5625 7.125 C-17.0091045 -0.29068438 -9.71347378 -4.30483497 0 0 Z " fill="#0A3D62" transform="translate(654.1875,388.5625)"/>
<path d="M0 0 C4.29 0.66 8.58 1.32 13 2 C12.01 2.33 11.02 2.66 10 3 C10 88.8 10 174.6 10 263 C6.43688534 261.21844267 4.64354525 259.83236991 2 257 C4.16874252 257.50603992 5.99967627 257.99983813 8 259 C8.33 174.85 8.66 90.7 9 4 C7.35 4 5.7 4 4 4 C1.6875 3 1.6875 3 0 2 C0 1.34 0 0.68 0 0 Z " fill="#0A3D62" transform="translate(694,273)"/>
<path d="M0 0 C1.41788971 0.00078699 2.83594195 0.02877283 4.25292969 0.0793457 C5.37643829 0.08995781 5.37643829 0.08995781 6.52264404 0.1007843 C8.90772706 0.12870557 11.29043525 0.1914316 13.67480469 0.25512695 C15.29456237 0.28021313 16.91435697 0.30302575 18.53417969 0.32348633 C22.49863208 0.37852371 26.46131622 0.46477373 30.42480469 0.56762695 C30.47150843 18.49149912 30.50678555 36.41535551 30.52842903 54.33927536 C30.53874521 62.66150699 30.55281208 70.98370083 30.57568359 79.3059082 C30.59560701 86.55884744 30.60851864 93.81175932 30.61298168 101.06472516 C30.61559084 104.90574102 30.62173059 108.74667859 30.6362648 112.58766937 C30.64983216 116.20240778 30.65402905 119.81703558 30.65102005 123.43179703 C30.65183324 125.39197448 30.66259933 127.35213987 30.67364502 129.31228638 C30.67089569 130.47893829 30.66814636 131.64559021 30.66531372 132.84759521 C30.66715731 133.8615675 30.66900089 134.87553978 30.67090034 135.92023849 C30.41994021 138.6199569 29.80816235 140.26078878 28.42480469 142.56762695 C28.40130101 129.64673154 28.38370093 116.72584147 28.37299252 103.80492878 C28.36784474 97.80077149 28.36090108 91.79662915 28.34936523 85.79248047 C28.29677418 57.69992708 28.41891935 29.6443527 29.42480469 1.56762695 C28.42346497 1.62097702 27.42212524 1.67432709 26.39044189 1.72929382 C25.74598492 1.76360158 25.10152794 1.79790934 24.43754196 1.83325672 C23.03055002 1.90827635 21.62357021 1.98352378 20.21660233 2.05899334 C17.31272315 2.21452963 14.40887643 2.36872937 11.50427246 2.51016235 C9.53440401 2.60627767 7.56546417 2.72093641 5.59667969 2.8371582 C4.31889648 2.90523682 3.04111328 2.97331543 1.72460938 3.04345703 C-1.647193 3.5790637 -3.11872258 4.26536011 -5.57519531 6.56762695 C-6.23519531 6.23762695 -6.89519531 5.90762695 -7.57519531 5.56762695 C-5.32562214 1.89044004 -4.34827391 0.69036717 0 0 Z " fill="#0A3D62" transform="translate(654.5751953125,330.432373046875)"/>
<path d="M0 0 C0.33 0 0.66 0 1 0 C1 20.79 1 41.58 1 63 C-15.17 63 -31.34 63 -48 63 C-48 62.34 -48 61.68 -48 61 C-32.49 61 -16.98 61 -1 61 C-1.3265527 51.09927999 -1.3265527 51.09927999 -1.65820312 41.19873047 C-2.45825671 16.28595072 -2.45825671 16.28595072 -1 6.625 C-0.7215625 4.72621094 -0.7215625 4.72621094 -0.4375 2.7890625 C-0.293125 1.86867188 -0.14875 0.94828125 0 0 Z " fill="#0A3D62" transform="translate(817,300)"/>
<path d="M0 0 C3 2.0625 3 2.0625 5 5 C5.1506132 9.29247606 4.66257079 11.22050496 1.875 14.5 C-1.93532871 16.48799759 -3.91964404 16.20899436 -8 15 C-10.81972931 12.63506574 -10.97850831 11.1719335 -11.4375 7.5 C-11 4 -11 4 -9.4375 1.5625 C-6.01685857 -0.63021887 -3.99048721 -0.63007693 0 0 Z " fill="#0A3D62" transform="translate(589,293)"/>
<path d="M0 0 C1.83984375 0.60546875 1.83984375 0.60546875 3.83984375 2.29296875 C5.18022881 5.39260921 5.38652244 7.25706177 4.83984375 10.60546875 C2.77734375 13.54296875 2.77734375 13.54296875 -0.16015625 15.60546875 C-3.67971044 15.60546875 -6.00935684 15.2365523 -9.09765625 13.54296875 C-10.85564586 10.33722298 -10.77267355 7.11160227 -10.16015625 3.60546875 C-7.54509717 -0.86192385 -4.71294357 -0.88641955 0 0 Z " fill="#0A3D62" transform="translate(759.16015625,440.39453125)"/>
<path d="M0 0 C2.9375 2.0625 2.9375 2.0625 5 5 C5.06641554 8.85210127 4.87229157 10.99848005 2.3125 13.9375 C-0.73602877 15.33817538 -2.67926952 15.4842732 -6 15 C-8.375 13.4375 -8.375 13.4375 -10 11 C-10.56783945 7.02512383 -10.62340519 4.93510779 -8.375 1.5625 C-5.24316508 -0.49791771 -3.68455227 -0.6767545 0 0 Z " fill="#0A3D62" transform="translate(649,397)"/>
<path d="M0 0 C4.38568197 1.6750386 7.21003673 3.93848686 10 7.6875 C11 10 11 10 11 12 C27.17 12 43.34 12 60 12 C60 12.33 60 12.66 60 13 C52.93423331 13.07595253 45.86857156 13.12855861 38.80249023 13.16479492 C36.39782782 13.17989816 33.99319302 13.20038208 31.58862305 13.22631836 C28.13583569 13.26263351 24.68341196 13.279711 21.23046875 13.29296875 C19.61316109 13.31619453 19.61316109 13.31619453 17.96318054 13.33988953 C16.96236954 13.34011612 15.96155853 13.34034271 14.93041992 13.34057617 C14.04883713 13.34723801 13.16725433 13.35389984 12.25895691 13.36076355 C9.50695763 12.92125936 8.69386131 12.1673439 7 10 C6.319375 8.7625 6.319375 8.7625 5.625 7.5 C3.62186901 4.41826002 2.42171655 3.38324712 -1 2 C-6.17931509 1.19980021 -10.54208115 1.23109775 -15 4.1875 C-17.79536131 6.55533546 -19.26475786 8.32378928 -20 12 C-20.30231858 17.08063169 -20.31993396 22.05024767 -19 27 C-22.3344988 23.95545762 -22.9448158 21.82776305 -23.25 17.25 C-23.16011065 12.35103062 -22.0416841 8.10701799 -18.53515625 4.48828125 C-12.59388545 -0.58140948 -7.63941297 -0.85094838 0 0 Z " fill="#0A3D62" transform="translate(758,351)"/>
<path d="M0 0 C3.05688354 1.63740583 4.38739738 3.12094143 6.0625 6.125 C7.11142824 8.02549645 7.11142824 8.02549645 8.8125 9.4375 C12.8201953 10.34331287 16.71336356 10.48326388 20.8125 10.4375 C20.8125 13.7375 20.8125 17.0375 20.8125 20.4375 C16.8525 20.4375 12.8925 20.4375 8.8125 20.4375 C8.8125 20.1075 8.8125 19.7775 8.8125 19.4375 C12.4425 19.4375 16.0725 19.4375 19.8125 19.4375 C19.8125 17.1275 19.8125 14.8175 19.8125 12.4375 C18.70841797 12.55931641 18.70841797 12.55931641 17.58203125 12.68359375 C9.68453368 13.1947924 9.68453368 13.1947924 7.1796875 11.01953125 C6.38599315 9.7869397 5.62438213 8.53315508 4.89453125 7.26171875 C3.04522373 4.14393315 1.07349391 2.9472194 -2.1875 1.4375 C-7.54204553 0.66228968 -11.78123844 0.75948103 -16.6875 3.125 C-20.05908016 6.24371165 -22.00330054 8.76874056 -22.515625 13.41015625 C-22.48984375 14.42980469 -22.4640625 15.44945312 -22.4375 16.5 C-22.42203125 17.52222656 -22.4065625 18.54445313 -22.390625 19.59765625 C-22.21715562 22.02289159 -21.87784302 24.11594322 -21.1875 26.4375 C-23.96639489 23.90024815 -25.02418864 21.99297376 -25.42578125 18.16796875 C-25.59568638 12.34648235 -25.19800544 8.97570353 -21.1875 4.4375 C-14.92152154 -1.5830746 -8.14316441 -3.60890241 0 0 Z " fill="#0A3D62" transform="translate(654.1875,388.5625)"/>
<path d="M0 0 C3.40062014 1.40715316 4.89229698 3.02868228 7 6 C4.95888458 6.48150942 2.91708068 6.96010083 0.875 7.4375 C-0.26195312 7.70433594 -1.39890625 7.97117187 -2.5703125 8.24609375 C-5.70461304 8.9350687 -8.83017726 9.50381194 -12 10 C-6.77793774 24.94313201 8.80170918 35.89399925 22.44360352 42.53979492 C26.21958906 44.30606656 30.02061412 45.76374565 34 47 C29.49628572 48.4650113 26.41994594 46.86369593 22.25 45.0625 C21.55261719 44.77181641 20.85523438 44.48113281 20.13671875 44.18164062 C18.42024305 43.46448297 16.70952768 42.73356598 15 42 C15 41.34 15 40.68 15 40 C14.41734375 39.88527344 13.8346875 39.77054687 13.234375 39.65234375 C10.83476865 38.95175938 9.27139067 38.01807405 7.25 36.5625 C6.63640625 36.13066406 6.0228125 35.69882812 5.390625 35.25390625 C4.93171875 34.84011719 4.4728125 34.42632812 4 34 C4 33.34 4 32.68 4 32 C3.1646875 31.66742188 3.1646875 31.66742188 2.3125 31.328125 C-0.72896833 29.58133576 -2.66178197 27.35910914 -5 24.75 C-5.845625 23.81671875 -6.69125 22.8834375 -7.5625 21.921875 C-11.23021538 17.52531874 -14.31628095 13.81161194 -15 8 C-13.10507994 7.66151348 -11.20901534 7.32943089 -9.3125 7 C-7.72888672 6.7215625 -7.72888672 6.7215625 -6.11328125 6.4375 C-3.35095938 6.04931926 -0.78257957 5.91740024 2 6 C1.34 4.02 0.68 2.04 0 0 Z " fill="#0A3D62" transform="translate(615,443)"/>
<path d="M0 0 C-5.75 3 -5.75 3 -8 3 C-8.0928125 3.928125 -8.0928125 3.928125 -8.1875 4.875 C-8.455625 5.57625 -8.72375 6.2775 -9 7 C-9.76699219 7.27972656 -10.53398438 7.55945313 -11.32421875 7.84765625 C-17.09345247 10.33221676 -20.60971302 17.41403112 -22.9375 23.0625 C-25.61401377 32.38873744 -25.6396294 45.34718906 -21 54 C-19.0554473 56.82865928 -19.0554473 56.82865928 -17 59 C-16.34 59.99 -15.68 60.98 -15 62 C-15.495 62.99 -15.495 62.99 -16 64 C-24.35339344 54.71845174 -27.52504964 45.09355039 -27.3125 32.56640625 C-26.36914658 21.80038535 -20.90833345 12.33909044 -13 5.125 C-4.81460287 -1.60486762 -4.81460287 -1.60486762 0 0 Z " fill="#0A3D62" transform="translate(691,220)"/>
<path d="M0 0 C8.58 0 17.16 0 26 0 C26 0.66 26 1.32 26 2 C18.41 2.33 10.82 2.66 3 3 C3 4.65 3 6.3 3 8 C3.90363281 7.97679687 4.80726563 7.95359375 5.73828125 7.9296875 C6.91777344 7.91164063 8.09726562 7.89359375 9.3125 7.875 C11.07013672 7.84019531 11.07013672 7.84019531 12.86328125 7.8046875 C16 8 16 8 19 10 C12.73 10 6.46 10 0 10 C0 6.7 0 3.4 0 0 Z " fill="#0A3D62" transform="translate(732,399)"/>
<path d="M0 0 C0.33 0 0.66 0 1 0 C1.08636719 0.79664063 1.17273438 1.59328125 1.26171875 2.4140625 C2.15233948 9.13048671 2.84175561 13.44155147 8 18 C10.61818456 19.33298974 10.61818456 19.33298974 13 20 C14 21 14 21 14.12025452 23.51197815 C14.1169236 25.18742958 14.1169236 25.18742958 14.11352539 26.89672852 C14.11344986 28.15796036 14.11337433 29.4191922 14.11329651 30.71864319 C14.1081891 32.10539794 14.10297309 33.49215229 14.09765625 34.87890625 C14.09579201 36.28995209 14.09436814 37.70099857 14.09336853 39.11204529 C14.08954379 42.83240535 14.0797139 46.5527266 14.06866455 50.27307129 C14.05844948 54.06680781 14.05387071 57.86055058 14.04882812 61.65429688 C14.03809158 69.10288231 14.0210157 76.55143572 14 84 C13.67 84 13.34 84 13 84 C13 63.54 13 43.08 13 22 C11.68 21.67 10.36 21.34 9 21 C7.1484375 19.73046875 7.1484375 19.73046875 5.375 18.1875 C4.78460937 17.68605469 4.19421875 17.18460937 3.5859375 16.66796875 C0.16648003 13.07164279 -0.2413456 10.13651507 -0.125 5.25 C-0.09792969 3.77273438 -0.09792969 3.77273438 -0.0703125 2.265625 C-0.04710937 1.51796875 -0.02390625 0.7703125 0 0 Z " fill="#0A3D62" transform="translate(805,278)"/>
<path d="M0 0 C4.97625505 0.42171653 9.60537812 1.11415946 14.4375 2.375 C22.5890996 4.37389703 30.89713777 5.09410317 39.23803711 5.90966797 C40.33897705 6.0232666 41.43991699 6.13686523 42.57421875 6.25390625 C44.06828247 6.39807983 44.06828247 6.39807983 45.5925293 6.54516602 C48 7 48 7 50 9 C40.67978881 9.36274314 31.92183386 8.28160857 22.75 6.6875 C21.42719676 6.47131003 20.10428019 6.25581232 18.78125 6.04101562 C12.19427912 4.92429738 6.13945815 3.65679598 0 1 C0 0.67 0 0.34 0 0 Z " fill="#0A3D62" transform="translate(644,608)"/>
<path d="M0 0 C0.5625 1.9375 0.5625 1.9375 1 4 C0.67 4.33 0.34 4.66 0 5 C-0.58602951 10.98426288 -0.44556247 15.89106254 3 21 C7.00832506 25.61791589 7.00832506 25.61791589 12.609375 27.1328125 C20.35272085 27.13001692 20.35272085 27.13001692 28 26 C25.485961 28.75347128 23.59221693 29.82748627 19.80078125 30.23828125 C13.6888456 30.42058388 8.88794994 29.89361323 4 26 C-0.31823442 21.29604094 -2.77981909 16.5584372 -3.1171875 10.1484375 C-2.93174802 6.74871366 -2.50282514 2.50282514 0 0 Z " fill="#0A3D62" transform="translate(618,310)"/>
<path d="M0 0 C5.17788959 1.9164916 8.90153716 5.07410673 11.390625 10.01953125 C12.50593664 13.64429407 12.30568087 17.25540931 12 21 C11.67 21 11.34 21 11 21 C10.84144531 20.19175781 10.68289063 19.38351562 10.51953125 18.55078125 C8.75269774 10.14330846 8.75269774 10.14330846 3 4 C0.03667754 2.25650674 -2.0694025 1.74788258 -5.5 1.8125 C-6.2528125 1.81894531 -7.005625 1.82539063 -7.78125 1.83203125 C-10.0165194 2.00125059 -11.90018983 2.20336149 -14 3 C-14.33 3.99 -14.66 4.98 -15 6 C-17.0625 6.6875 -17.0625 6.6875 -19 7 C-19.33 8.65 -19.66 10.3 -20 12 C-20.66 11.67 -21.32 11.34 -22 11 C-20.89859722 6.31903819 -18.2854085 3.85280488 -14.4765625 1.1796875 C-9.73071847 -1.08095114 -5.09624823 -0.90417307 0 0 Z " fill="#0A3D62" transform="translate(828,266)"/>
<path d="M0 0 C2.72943537 -0.05416741 5.45778564 -0.09375225 8.1875 -0.125 C8.95642578 -0.14175781 9.72535156 -0.15851563 10.51757812 -0.17578125 C14.8149434 -0.21266851 18.07901831 0.0041496 22 2 C22 2.66 22 3.32 22 4 C20.88625 3.505 20.88625 3.505 19.75 3 C13.94494832 1.45198622 7.47814264 0.57823292 1.7734375 2.91015625 C-2.20580283 5.54322804 -4.45042155 8.43735235 -6 13 C-6.50388261 16.32762081 -6.80747858 19.64083321 -7 23 C-7.66 22.67 -8.32 22.34 -9 22 C-9.3690205 12.58997722 -9.3690205 12.58997722 -7 8 C-6.34 8 -5.68 8 -5 8 C-4.67 6.68 -4.34 5.36 -4 4 C-2.68 3.67 -1.36 3.34 0 3 C0 2.01 0 1.02 0 0 Z " fill="#0A3D62" transform="translate(812,265)"/>
<path d="M0 0 C0 6.93 0 13.86 0 21 C-4.455 22.485 -4.455 22.485 -9 24 C-10.98 24.99 -10.98 24.99 -13 26 C-12 23 -12 23 -9.25 21.3125 C-6.09226818 20.03726215 -4.32204745 19.88135545 -1 20 C-1.14058476 17.54126232 -1.28722999 15.08314825 -1.4375 12.625 C-1.47681641 11.92632812 -1.51613281 11.22765625 -1.55664062 10.5078125 C-1.74280134 6.62639508 -1.74280134 6.62639508 -3 3 C-4.89533342 2.53476937 -4.89533342 2.53476937 -7.0625 2.375 C-8.361875 2.25125 -9.66125 2.1275 -11 2 C-11 1.67 -11 1.34 -11 1 C-7.09145257 0.08034178 -4.17664661 0 0 0 Z " fill="#0A3D62" transform="translate(704,216)"/>
<path d="M0 0 C3.5641237 1.9903548 6.34560001 4.10660153 9.20703125 7.01171875 C10.33334961 8.14770508 10.33334961 8.14770508 11.48242188 9.30664062 C12.25134766 10.09232422 13.02027344 10.87800781 13.8125 11.6875 C14.60076172 12.48478516 15.38902344 13.28207031 16.20117188 14.10351562 C18.13872585 16.0645551 20.07144276 18.03011881 22 20 C19 20 19 20 16 18 C16 17.34 16 16.68 16 16 C15.01 16 14.02 16 13 16 C12.9175 15.38125 12.835 14.7625 12.75 14.125 C11.74559185 11.27917691 10.68537484 11.30639857 8 10 C5.85074023 8.1397605 3.79741329 6.20482697 2 4 C2 3.34 2 2.68 2 2 C1.34 2 0.68 2 0 2 C0 1.34 0 0.68 0 0 Z " fill="#0A3D62" transform="translate(584,413)"/>
<path d="M0 0 C0.33 0 0.66 0 1 0 C1.31002782 3.41030602 1.43044252 5.35433623 -0.5 8.25 C-6.66565935 12.56596155 -14.70589607 12.77018489 -22 12 C-24.328125 10.984375 -24.328125 10.984375 -26 10 C-25.67 9.34 -25.34 8.68 -25 8 C-24.34 8.33 -23.68 8.66 -23 9 C-17.51906541 10.8269782 -12.96851475 10.70729709 -7.75 8.375 C-3.85693548 6.248729 -2.16567314 3.81158472 0 0 Z " fill="#0A3D62" transform="translate(662,411)"/>
<path d="M0 0 C1 3 1 3 0.5625 5.3125 C-2.72908975 10.97403437 -9.07561621 14.53029967 -15 17 C-18.6484375 17.29296875 -18.6484375 17.29296875 -22.375 17.1875 C-23.62023437 17.16042969 -24.86546875 17.13335937 -26.1484375 17.10546875 C-27.08945312 17.07066406 -28.03046875 17.03585937 -29 17 C-29 16.67 -29 16.34 -29 16 C-28.02160156 15.92523438 -27.04320312 15.85046875 -26.03515625 15.7734375 C-17.81313747 14.94881025 -11.12723043 14.08752915 -5 8 C-3.06047918 5.45065349 -1.44331611 2.85762084 0 0 Z " fill="#0A3D62" transform="translate(682,475)"/>
<path d="M0 0 C6.27 0 12.54 0 19 0 C19.10770003 3.60495944 19.18717372 7.20672033 19.25 10.8125 C19.28351562 11.83666016 19.31703125 12.86082031 19.3515625 13.91601562 C19.36445312 14.89892578 19.37734375 15.88183594 19.390625 16.89453125 C19.41157227 17.80050049 19.43251953 18.70646973 19.45410156 19.63989258 C19 22 19 22 17.10058594 23.8190918 C15 25 15 25 13 25 C13.66 23.68 14.32 22.36 15 21 C15.99 21 16.98 21 18 21 C18 14.4 18 7.8 18 1 C12.06 1 6.12 1 0 1 C0 0.67 0 0.34 0 0 Z " fill="#0A3D62" transform="translate(732,409)"/>
<path d="M0 0 C6.3782235 -0.48137536 6.3782235 -0.48137536 8.9375 1.5 C10.76217216 5.79334625 10.65537479 10.03387563 9.1875 14.4375 C8 16 8 16 5 17 C3.43881572 17.06740865 1.8749748 17.08514456 0.3125 17.0625 C-0.89986328 17.04896484 -0.89986328 17.04896484 -2.13671875 17.03515625 C-2.75160156 17.02355469 -3.36648438 17.01195312 -4 17 C-4.66 15.35 -5.32 13.7 -6 12 C-5.46375 12.495 -4.9275 12.99 -4.375 13.5 C-1.29889257 15.44280469 0.41889189 15.52224493 4 15 C6.58333333 13.58333333 6.58333333 13.58333333 8 11 C8.41349769 7.39418221 8.41349769 7.39418221 7 4 C4.70301836 2.43586488 2.70085415 1.83480946 0 1 C0 0.67 0 0.34 0 0 Z " fill="#0A3D62" transform="translate(645,396)"/>
<path d="M0 0 C0.66 0.66 1.32 1.32 2 2 C-0.64 2.33 -3.28 2.66 -6 3 C-7.20434474 7.59320614 -7.20434474 7.59320614 -6 12 C-3.00384054 13.3045656 -3.00384054 13.3045656 0 14 C0 14.33 0 14.66 0 15 C-3.49644963 15.31785906 -5.397402 15.39644605 -8.375 13.4375 C-10.62340519 10.06489221 -10.56783945 7.97487617 -10 4 C-7.24521555 -0.13217668 -4.82659567 -0.62955596 0 0 Z " fill="#0A3D62" transform="translate(649,397)"/>
<path d="M0 0 C1.9375 0.8125 1.9375 0.8125 4 2 C4.33 2.99 4.66 3.98 5 5 C8.96 5.33 12.92 5.66 17 6 C17 9.96 17 13.92 17 18 C12.71 18 8.42 18 4 18 C4 17.67 4 17.34 4 17 C7.96 17 11.92 17 16 17 C16 13.7 16 10.4 16 7 C12.04 7 8.08 7 4 7 C2.02 3.535 2.02 3.535 0 0 Z " fill="#0A3D62" transform="translate(659,392)"/>
<path d="M0 0 C0.99 0.33 1.98 0.66 3 1 C1.73046875 2.43229167 0.4609375 3.86458333 -0.80859375 5.296875 C-3.20555123 8.72334537 -3.11611478 12.17527663 -3.0625 16.25 C-3.04896484 17.58804687 -3.04896484 17.58804687 -3.03515625 18.953125 C-3.02355469 19.62859375 -3.01195312 20.3040625 -3 21 C-3.66 21 -4.32 21 -5 21 C-6.87078797 17.25842405 -6.55138205 13.07311256 -6 9 C-4.49800833 5.66525315 -2.59800667 2.59800667 0 0 Z " fill="#0A3D62" transform="translate(739,353)"/>
<path d="M0 0 C0.66 0.33 1.32 0.66 2 1 C-1.81919404 7.73975418 -5.93059017 12.56628665 -13 16 C-13.99 16 -14.98 16 -16 16 C-16 15.34 -16 14.68 -16 14 C-14.68 14 -13.36 14 -12 14 C-12 13.34 -12 12.68 -12 12 C-11.01 12 -10.02 12 -9 12 C-8.67 11.01 -8.34 10.02 -8 9 C-6.0625 6.8125 -6.0625 6.8125 -4 5 C-3.34 5 -2.68 5 -2 5 C-1.855625 4.360625 -1.71125 3.72125 -1.5625 3.0625 C-1 1 -1 1 0 0 Z " fill="#0A3D62" transform="translate(681,474)"/>
<path d="M0 0 C1.15628906 -0.01417969 2.31257812 -0.02835937 3.50390625 -0.04296875 C6.4375 0.1875 6.4375 0.1875 8.4375 2.1875 C7.06078125 2.10048828 7.06078125 2.10048828 5.65625 2.01171875 C-1.36301498 1.75365754 -6.42296428 1.68063173 -12.20703125 5.8984375 C-13.69313231 7.16547897 -13.69313231 7.16547897 -14.5625 9.1875 C-15.2225 9.1875 -15.8825 9.1875 -16.5625 9.1875 C-15.06771886 5.38260255 -12.86807786 3.52559165 -9.5625 1.1875 C-6.1971364 0.06571213 -3.5421245 0.01978841 0 0 Z " fill="#0A3D62" transform="translate(635.5625,300.8125)"/>
<path d="M0 0 C0.33 0.66 0.66 1.32 1 2 C-1.76276177 1.47731534 -4.3260876 0.89130413 -7 0 C-9.39073445 3.82517513 -9.55966552 7.59665524 -10 12 C-10.66 11.67 -11.32 11.34 -12 11 C-12.47880299 3.81795511 -12.47880299 3.81795511 -10.5 0.4375 C-6.66856891 -1.76557288 -4.26253001 -0.97828558 0 0 Z " fill="#0A3D62" transform="translate(761,441)"/>
<path d="M0 0 C0 0.33 0 0.66 0 1 C-1.134375 1.12375 -2.26875 1.2475 -3.4375 1.375 C-5.2009375 1.684375 -5.2009375 1.684375 -7 2 C-7.33 2.66 -7.66 3.32 -8 4 C-7.01 5.485 -7.01 5.485 -6 7 C-6.33 7.99 -6.66 8.98 -7 10 C-7.86657116 8.90554162 -8.71792724 7.79902219 -9.5625 6.6875 C-10.03816406 6.07261719 -10.51382813 5.45773437 -11.00390625 4.82421875 C-11.33261719 4.22222656 -11.66132812 3.62023437 -12 3 C-11.67 2.01 -11.34 1.02 -11 0 C-6.98195309 -0.84098656 -3.98196457 -1.05404945 0 0 Z " fill="#0A3D62" transform="translate(614,452)"/>
<path d="M0 0 C0.66 0.66 1.32 1.32 2 2 C0.9275 1.9175 -0.145 1.835 -1.25 1.75 C-4.97066137 1.69168298 -4.97066137 1.69168298 -7.5 3.625 C-9.32600777 5.99253417 -9.32600777 5.99253417 -8.75 9.25 C-8.5025 10.1575 -8.255 11.065 -8 12 C-8.99 12.495 -8.99 12.495 -10 13 C-11.54586876 9.90826248 -11.29359521 7.40570448 -11 4 C-8.09732085 -0.52817947 -5.13085376 -0.57009486 0 0 Z " fill="#0A3D62" transform="translate(589,293)"/>
<path d="M0 0 C5.6868961 2.08906387 9.59469939 4.86249881 14 9 C13.67 9.99 13.34 10.98 13 12 C12.50371094 11.52949219 12.00742187 11.05898437 11.49609375 10.57421875 C7.18594947 6.62393472 3.51682767 3.95387647 -2 2 C-1.34 1.34 -0.68 0.68 0 0 Z " fill="#0A3D62" transform="translate(720,217)"/>
<path d="M0 0 C0.6640625 1.7734375 0.6640625 1.7734375 1 4 C-1.11725354 7.7728503 -4.03204098 10.51602049 -7.875 12.4375 C-8.926875 12.7159375 -8.926875 12.7159375 -10 13 C-10 12.01 -10 11.02 -10 10 C-9.01 10 -8.02 10 -7 10 C-7 9.34 -7 8.68 -7 8 C-6.34 8 -5.68 8 -5 8 C-5 7.34 -5 6.68 -5 6 C-4.34 6 -3.68 6 -3 6 C-3 5.34 -3 4.68 -3 4 C-2.34 4 -1.68 4 -1 4 C-0.67 2.68 -0.34 1.36 0 0 Z " fill="#0A3D62" transform="translate(838,287)"/>
<path d="M0 0 C-0.33 0.99 -0.66 1.98 -1 3 C-3.08272894 3.33708908 -5.16621037 3.66953116 -7.25 4 C-8.41015625 4.185625 -9.5703125 4.37125 -10.765625 4.5625 C-14 5 -14 5 -18 5 C-18 4.34 -18 3.68 -18 3 C-18.66 3 -19.32 3 -20 3 C-20 2.34 -20 1.68 -20 1 C-19.1646875 1.24169922 -19.1646875 1.24169922 -18.3125 1.48828125 C-15.81590039 2.04073826 -13.55549558 2.16802214 -11 2.1875 C-10.154375 2.20167969 -9.30875 2.21585937 -8.4375 2.23046875 C-5.28332436 1.9322374 -3.0911277 0 0 0 Z " fill="#0A3D62" transform="translate(763,382)"/>
<path d="M0 0 C14.78132118 -0.3690205 14.78132118 -0.3690205 21 2 C21 2.33 21 2.66 21 3 C18.62468606 3.0543965 16.25064117 3.09385864 13.875 3.125 C13.20984375 3.14175781 12.5446875 3.15851563 11.859375 3.17578125 C7.50483944 3.21847278 4.04399886 2.59996217 0 1 C0 0.67 0 0.34 0 0 Z " fill="#0A3D62" transform="translate(643,488)"/>
<path d="M0 0 C0.66 0 1.32 0 2 0 C2.36263859 5.8022175 1.25684543 9.63999211 -1 15 C-1.99 15 -2.98 15 -4 15 C-2.125 10.125 -2.125 10.125 -1 9 C-0.76807135 7.48530552 -0.58784762 5.96245438 -0.4375 4.4375 C-0.35371094 3.61121094 -0.26992188 2.78492188 -0.18359375 1.93359375 C-0.12300781 1.29550781 -0.06242188 0.65742188 0 0 Z " fill="#0A3D62" transform="translate(772,444)"/>
<path d="M0 0 C0.66 0.99 1.32 1.98 2 3 C0.7934375 4.0828125 0.7934375 4.0828125 -0.4375 5.1875 C-3.02292072 8.02515689 -3.68042813 9.27166147 -4 13 C-4.66 12.67 -5.32 12.34 -6 12 C-5.59791618 6.37082652 -3.71069698 3.99613521 0 0 Z " fill="#0A3D62" transform="translate(745,434)"/>
<path d="M0 0 C0.57492187 0.21914063 1.14984375 0.43828125 1.7421875 0.6640625 C0.7728125 0.9321875 -0.1965625 1.2003125 -1.1953125 1.4765625 C-2.2059375 1.8684375 -3.2165625 2.2603125 -4.2578125 2.6640625 C-4.5878125 3.6540625 -4.9178125 4.6440625 -5.2578125 5.6640625 C-7.3203125 6.3515625 -7.3203125 6.3515625 -9.2578125 6.6640625 C-9.5878125 8.3140625 -9.9178125 9.9640625 -10.2578125 11.6640625 C-10.9178125 11.3340625 -11.5778125 11.0040625 -12.2578125 10.6640625 C-11.10040403 5.74507652 -8.14440043 3.64876725 -4.328125 0.703125 C-2.2578125 -0.3359375 -2.2578125 -0.3359375 0 0 Z " fill="#0A3D62" transform="translate(818.2578125,266.3359375)"/>
<path d="M0 0 C0.33 0.66 0.66 1.32 1 2 C-0.26953125 3.46484375 -1.5390625 4.9296875 -2.80859375 6.39453125 C-4.20871231 8.10712971 -4.20871231 8.10712971 -5 11 C-7.375 13.6875 -7.375 13.6875 -10 16 C-10.99 16 -11.98 16 -13 16 C-8.71 10.72 -4.42 5.44 0 0 Z " fill="#0A3D62" transform="translate(554,246)"/>
<path d="M0 0 C0.671875 1.765625 0.671875 1.765625 1 4 C-0.109375 5.921875 -0.109375 5.921875 -1.75 7.75 C-2.54664063 8.67039063 -2.54664063 8.67039063 -3.359375 9.609375 C-5 11 -5 11 -8 11 C-7.59007812 10.45730469 -7.18015625 9.91460937 -6.7578125 9.35546875 C-6.21898437 8.64003906 -5.68015625 7.92460937 -5.125 7.1875 C-4.59132813 6.47980469 -4.05765625 5.77210938 -3.5078125 5.04296875 C-2.29185219 3.39543703 -1.13583859 1.70375789 0 0 Z " fill="#0A3D62" transform="translate(530,233)"/>
<path d="M0 0 C0.66 0.33 1.32 0.66 2 1 C-0.97 6.61 -3.94 12.22 -7 18 C-8 15 -8 15 -6.85546875 12.1875 C-6.30503906 11.135625 -5.75460937 10.08375 -5.1875 9 C-4.37345703 7.4221875 -4.37345703 7.4221875 -3.54296875 5.8125 C-2 3 -2 3 0 0 Z " fill="#0A3D62" transform="translate(505,266)"/>
<path d="M0 0 C9.41002278 -0.18451025 9.41002278 -0.18451025 14 1 C14 1.33 14 1.66 14 2 C12.25093341 2.19601608 10.50068154 2.38147403 8.75 2.5625 C7.77546875 2.66691406 6.8009375 2.77132812 5.796875 2.87890625 C3.2368648 2.98974468 1.41851841 2.77738092 -1 2 C-0.67 1.34 -0.34 0.68 0 0 Z " fill="#0A3D62" transform="translate(719,179)"/>
<path d="M0 0 C4.37653129 0.47620289 6.06538005 1.66899889 8.8125 5.0625 C9.41707031 5.79597656 10.02164063 6.52945312 10.64453125 7.28515625 C11.09183594 7.85105469 11.53914062 8.41695313 12 9 C11.67 9.66 11.34 10.32 11 11 C9.16365304 9.35742342 7.3308593 7.71117305 5.5 6.0625 C4.97535156 5.59392578 4.45070313 5.12535156 3.91015625 4.64257812 C2.5878256 3.44904592 1.29166061 2.22665821 0 1 C0 0.67 0 0.34 0 0 Z " fill="#0A3D62" transform="translate(582,410)"/>
<path d="M0 0 C0.33 0.99 0.66 1.98 1 3 C-0.2065625 3.61875 -0.2065625 3.61875 -1.4375 4.25 C-5.41780165 8.52154323 -4.90234725 13.35389564 -5 19 C-5.33 19 -5.66 19 -6 19 C-6.92017937 6.40717489 -6.92017937 6.40717489 -4.6640625 2.95703125 C-3 1.625 -3 1.625 0 0 Z " fill="#0A3D62" transform="translate(729,287)"/>
<path d="M0 0 C0.33 0.66 0.66 1.32 1 2 C-2.72346836 6.42094803 -6.29521038 10.57833482 -11 14 C-11 11 -11 11 -9.1015625 9.0625 C-7.87566406 8.0415625 -7.87566406 8.0415625 -6.625 7 C-3.89281693 4.71017038 -1.99134577 2.98701865 0 0 Z " fill="#0A3D62" transform="translate(797,465)"/>
<path d="M0 0 C0.33 0 0.66 0 1 0 C1 3.3 1 6.6 1 10 C0.01 10 -0.98 10 -2 10 C-2.1953125 3.9453125 -2.1953125 3.9453125 -2 2 C-1.34 1.34 -0.68 0.68 0 0 Z " fill="#0A3D62" transform="translate(767,314)"/>
<path d="M0 0 C0 0.66 0 1.32 0 2 C-5.47619048 7 -5.47619048 7 -8 7 C-8.33 8.32 -8.66 9.64 -9 11 C-9.66 11 -10.32 11 -11 11 C-9.7672897 6.34309441 -5.30909278 0 0 0 Z " fill="#0A3D62" transform="translate(580,284)"/>
<path d="M0 0 C3.35861695 1.43409972 5.35874939 3.19369321 7.75 5.9375 C8.36359375 6.62714844 8.9771875 7.31679688 9.609375 8.02734375 C11 10 11 10 11 13 C9.16052663 11.21427748 7.32842259 9.42197551 5.5 7.625 C4.71302734 6.86316406 4.71302734 6.86316406 3.91015625 6.0859375 C2.56846819 4.76167396 1.28004185 3.38394135 0 2 C0 1.34 0 0.68 0 0 Z " fill="#0A3D62" transform="translate(598,493)"/>
<path d="M0 0 C0.33 0 0.66 0 1 0 C1 5.63623038 0.70563655 8.92693147 -2 14 C-2.66 14 -3.32 14 -4 14 C-3.52188823 12.22888156 -3.0424722 10.45811517 -2.5625 8.6875 C-2.29566406 7.70136719 -2.02882813 6.71523438 -1.75390625 5.69921875 C-1.21920575 3.78482474 -0.62855462 1.88566385 0 0 Z " fill="#0A3D62" transform="translate(489,303)"/>
<path d="M0 0 C4.21752761 1.56204726 6.37399346 4.45134252 9 8 C9.8125 10.375 9.8125 10.375 10 12 C6.40459445 8.50732032 3.12221448 4.92506963 0 1 C0 0.67 0 0.34 0 0 Z " fill="#0A3D62" transform="translate(872,226)"/>
<path d="M0 0 C0.99 0.33 1.98 0.66 3 1 C0.69 3.31 -1.62 5.62 -4 8 C-4.66 7.67 -5.32 7.34 -6 7 C-4.75686537 3.27059611 -3.23014784 2.15343189 0 0 Z " fill="#0A3D62" transform="translate(835,541)"/>
<path d="M0 0 C0.33 0.66 0.66 1.32 1 2 C0.06558465 3.27310312 -0.87267111 4.543388 -1.8125 5.8125 C-2.33457031 6.52019531 -2.85664062 7.22789062 -3.39453125 7.95703125 C-4.83128877 9.78531393 -6.31815763 11.39896688 -8 13 C-8.66 12.67 -9.32 12.34 -10 12 C-9.44570313 11.38511719 -8.89140625 10.77023437 -8.3203125 10.13671875 C-7.59585938 9.32847656 -6.87140625 8.52023437 -6.125 7.6875 C-5.40570312 6.88699219 -4.68640625 6.08648438 -3.9453125 5.26171875 C-1.88394498 2.95810917 -1.88394498 2.95810917 0 0 Z " fill="#0A3D62" transform="translate(885,526)"/>
<path d="M0 0 C2.40784074 3.39930457 2.02728742 6.16581783 1.58203125 10.09765625 C0.8761236 12.40488463 -0.19634015 13.43942099 -2 15 C-1.03644647 4.44191344 -1.03644647 4.44191344 0 0 Z " fill="#0A3D62" transform="translate(847,458)"/>
<path d="M0 0 C3.74622356 1.45015106 3.74622356 1.45015106 4.75 3.625 C5.1155134 7.09737727 5.05818928 10.50864298 5 14 C2.60926555 10.17482487 2.44033448 6.40334476 2 2 C1.34 2 0.68 2 0 2 C0 1.34 0 0.68 0 0 Z " fill="#0A3D62" transform="translate(567,397)"/>
<path d="M0 0 C5.28 0 10.56 0 16 0 C16.33 0.66 16.66 1.32 17 2 C16.03578125 1.98839844 15.0715625 1.97679687 14.078125 1.96484375 C12.81484375 1.95582031 11.5515625 1.94679688 10.25 1.9375 C8.37054687 1.92009766 8.37054687 1.92009766 6.453125 1.90234375 C3.71463499 1.97978973 1.58119707 2.17219185 -1 3 C-0.67 2.01 -0.34 1.02 0 0 Z " fill="#0A3D62" transform="translate(743,350)"/>
<path d="M0 0 C1.43861294 0.08746284 2.87597508 0.19565348 4.3125 0.3125 C5.11300781 0.37050781 5.91351562 0.42851563 6.73828125 0.48828125 C9.36272334 1.08206694 10.30820672 1.95780294 12 4 C3.42857143 3.14285714 3.42857143 3.14285714 0 1 C0 0.67 0 0.34 0 0 Z " fill="#0A3D62" transform="translate(644,608)"/>
<path d="M0 0 C0.5625 1.9375 0.5625 1.9375 1 4 C0.67 4.33 0.34 4.66 0 5 C-0.23075082 6.34747084 -0.41153063 7.70377565 -0.5625 9.0625 C-0.7790625 11.0115625 -0.7790625 11.0115625 -1 13 C-1.66 13 -2.32 13 -3 13 C-2.88557539 11.39504433 -2.75805306 9.79101881 -2.625 8.1875 C-2.55539062 7.29417969 -2.48578125 6.40085937 -2.4140625 5.48046875 C-2 3 -2 3 0 0 Z " fill="#0A3D62" transform="translate(618,310)"/>
<path d="M0 0 C1.32 0.33 2.64 0.66 4 1 C-0.455 4.465 -0.455 4.465 -5 8 C-5.66 7.34 -6.32 6.68 -7 6 C-5.93106782 4.96409662 -4.84421512 3.94666058 -3.75 2.9375 C-3.14671875 2.36902344 -2.5434375 1.80054688 -1.921875 1.21484375 C-1.28765625 0.81394531 -0.6534375 0.41304687 0 0 Z " fill="#0A3D62" transform="translate(569,194)"/>
<path d="M0 0 C5.37305699 0.2642487 5.37305699 0.2642487 8 1 C10 3.5625 10 3.5625 11 6 C7.2089881 4.55049545 3.6125362 2.84827434 0 1 C0 0.67 0 0.34 0 0 Z " fill="#0A3D62" transform="translate(806,176)"/>
<path d="M0 0 C2.97 0.33 5.94 0.66 9 1 C9 1.66 9 2.32 9 3 C9.66 3 10.32 3 11 3 C11 3.66 11 4.32 11 5 C9.53932801 4.54917531 8.08151968 4.08906463 6.625 3.625 C5.81289063 3.36976563 5.00078125 3.11453125 4.1640625 2.8515625 C2 2 2 2 0 0 Z " fill="#0A3D62" transform="translate(639,504)"/>
<path d="M0 0 C0.66 0.33 1.32 0.66 2 1 C0.02 3.31 -1.96 5.62 -4 8 C-4.99 7.67 -5.98 7.34 -7 7 C-4.69 4.69 -2.38 2.38 0 0 Z " fill="#0A3D62" transform="translate(816,419)"/>
<path d="M0 0 C0.75 1.75 0.75 1.75 1 4 C-1.05226666 6.76266666 -2.41531259 7.8405398 -5.75 8.75 C-6.86375 8.87375 -6.86375 8.87375 -8 9 C-6.8553125 7.88625 -6.8553125 7.88625 -5.6875 6.75 C-3.5606298 4.5736677 -1.7440044 2.47832204 0 0 Z " fill="#0A3D62" transform="translate(838,291)"/>
<path d="M0 0 C-0.8125 1.9375 -0.8125 1.9375 -2 4 C-2.99 4.33 -3.98 4.66 -5 5 C-5.73323796 7.01508358 -5.73323796 7.01508358 -6 9 C-6.66 9 -7.32 9 -8 9 C-6.68994234 5.06982701 -4.75047804 0 0 0 Z " fill="#0A3D62" transform="translate(695,240)"/>
<path d="M0 0 C3.63 0 7.26 0 11 0 C9.515 1.485 9.515 1.485 8 3 C4.375 2.8125 4.375 2.8125 1 2 C0.67 1.34 0.34 0.68 0 0 Z " fill="#0A3D62" transform="translate(580,306)"/>
<path d="M0 0 C10.55808656 -0.3690205 10.55808656 -0.3690205 15 2 C15 2.66 15 3.32 15 4 C14.195625 3.690625 13.39125 3.38125 12.5625 3.0625 C8.37750913 1.81434483 4.33693899 1.3662304 0 1 C0 0.67 0 0.34 0 0 Z " fill="#0A3D62" transform="translate(819,265)"/>
<path d="M0 0 C0.33 0.99 0.66 1.98 1 3 C-1.8125 5.0625 -1.8125 5.0625 -5 7 C-5.99 6.67 -6.98 6.34 -8 6 C-5.36 4.02 -2.72 2.04 0 0 Z " fill="#0A3D62" transform="translate(583,187)"/>
<path d="M0 0 C0.66 0.66 1.32 1.32 2 2 C-0.17424117 4.50037734 -1.73045798 5.43628586 -5 6 C-4.75 4.125 -4.75 4.125 -4 2 C-1.9375 0.75 -1.9375 0.75 0 0 Z " fill="#0A3D62" transform="translate(629,189)"/>
<path d="M0 0 C-0.33 0.99 -0.66 1.98 -1 3 C-4.375 3.625 -4.375 3.625 -8 4 C-8.66 3.34 -9.32 2.68 -10 2 C-3.375 0 -3.375 0 0 0 Z " fill="#0A3D62" transform="translate(649,159)"/>
<path d="M0 0 C-2.97 1.65 -5.94 3.3 -9 5 C-9.33 4.34 -9.66 3.68 -10 3 C-9.34 3 -8.68 3 -8 3 C-7.67 2.01 -7.34 1.02 -7 0 C-4.05610218 -1.17755913 -3.10046087 -1.03348696 0 0 Z " fill="#0A3D62" transform="translate(734,539)"/>
<path d="M0 0 C1.32 0.66 2.64 1.32 4 2 C2.35 3.65 0.7 5.3 -1 7 C-1.66 6.67 -2.32 6.34 -3 6 C-2.01 4.02 -1.02 2.04 0 0 Z " fill="#0A3D62" transform="translate(828,467)"/>
<path d="M0 0 C0.66 0.33 1.32 0.66 2 1 C1.01 3.97 0.02 6.94 -1 10 C-1.99 10 -2.98 10 -4 10 C-3.52449439 8.51965236 -3.04448784 7.04074979 -2.5625 5.5625 C-2.29566406 4.73878906 -2.02882813 3.91507812 -1.75390625 3.06640625 C-1 1 -1 1 0 0 Z " fill="#0A3D62" transform="translate(511,317)"/>
<path d="M0 0 C1.98 0 3.96 0 6 0 C3.11912454 2.40072955 0.43595166 4.47291037 -3 6 C-2 4 -1 2 0 0 Z " fill="#0A3D62" transform="translate(576,188)"/>
<path d="M0 0 C0 0.99 0 1.98 0 3 C-2.53184488 5.35723489 -3.47190093 6 -7 6 C-6 3 -6 3 -2.9375 1.3125 C-1.968125 0.879375 -0.99875 0.44625 0 0 Z " fill="#0A3D62" transform="translate(597,179)"/>
<path d="M0 0 C0.33 0.99 0.66 1.98 1 3 C-4.75 6 -4.75 6 -7 6 C-6 3 -6 3 -2.9375 1.3125 C-1.968125 0.879375 -0.99875 0.44625 0 0 Z " fill="#0A3D62" transform="translate(795,566)"/>
<path d="M0 0 C3.99500618 1.3697164 6.80009492 3.25722422 10 6 C9.67 6.66 9.34 7.32 9 8 C7.49712782 6.85793642 5.99776716 5.71125043 4.5 4.5625 C3.6646875 3.92441406 2.829375 3.28632813 1.96875 2.62890625 C1.3190625 2.09136719 0.669375 1.55382812 0 1 C0 0.67 0 0.34 0 0 Z " fill="#0A3D62" transform="translate(616,471)"/>
<path d="M0 0 C3.36720387 1.39332574 4.9859524 2.9789286 7 6 C5.68 6.33 4.36 6.66 3 7 C1.79371992 4.66785852 0.8345262 2.50357861 0 0 Z " fill="#0A3D62" transform="translate(615,443)"/>
<path d="M0 0 C0.598125 0.763125 1.19625 1.52625 1.8125 2.3125 C3.46959332 4.3483575 5.10297674 6.1978279 7 8 C6.01 8.495 6.01 8.495 5 9 C2.5 6.75 2.5 6.75 0 4 C0 2.68 0 1.36 0 0 Z " fill="#0A3D62" transform="translate(687,265)"/>
<path d="M0 0 C0.66 0.33 1.32 0.66 2 1 C0.1875 4 0.1875 4 -2 7 C-2.99 7 -3.98 7 -5 7 C-4.67 6.34 -4.34 5.68 -4 5 C-3.34 5 -2.68 5 -2 5 C-1.7834375 4.0409375 -1.7834375 4.0409375 -1.5625 3.0625 C-1 1 -1 1 0 0 Z " fill="#0A3D62" transform="translate(681,474)"/>
<path d="M0 0 C3 1 3 1 4.75 3.4375 C5.36875 4.7059375 5.36875 4.7059375 6 6 C5.67 6.66 5.34 7.32 5 8 C1.39345961 5.59563974 1.14547068 4.05320393 0 0 Z " fill="#0A3D62" transform="translate(763,355)"/>
<path d="M0 0 C2.97 0.33 5.94 0.66 9 1 C9 1.99 9 2.98 9 4 C6.03 3.01 3.06 2.02 0 1 C0 0.67 0 0.34 0 0 Z " fill="#0A3D62" transform="translate(625,574)"/>
<path d="M0 0 C-2.97 1.65 -5.94 3.3 -9 5 C-6.64389875 0.2877975 -5.23968794 -1.74656265 0 0 Z " fill="#0A3D62" transform="translate(816,557)"/>
<path d="M0 0 C0.99 0.33 1.98 0.66 3 1 C3 1.66 3 2.32 3 3 C1.02 3.99 -0.96 4.98 -3 6 C-3 3 -3 3 -1.5 1.3125 C-0.7575 0.6628125 -0.7575 0.6628125 0 0 Z " fill="#0A3D62" transform="translate(804,431)"/>
<path d="M0 0 C0.66 0.99 1.32 1.98 2 3 C1.70630173 4.34262065 1.3721042 5.67696283 1 7 C1.33 7.99 1.66 8.98 2 10 C1.01 10.495 1.01 10.495 0 11 C-1.49297212 8.01405576 -1.11755228 5.29146376 -1 2 C-0.67 1.34 -0.34 0.68 0 0 Z " fill="#0A3D62" transform="translate(579,295)"/>
</svg>
